<?xml version="1.0" standalone="no"?>
<!DOCTYPE svg PUBLIC "-//W3C//DTD SVG 20010904//EN"
 "http://www.w3.org/TR/2001/REC-SVG-20010904/DTD/svg10.dtd">
<svg version="1.0" xmlns="http://www.w3.org/2000/svg"
 width="1024.000000pt" height="1024.000000pt" viewBox="0 0 1024.000000 1024.000000"
 preserveAspectRatio="xMidYMid meet">
<metadata>
Created by potrace 1.11, written by Peter Selinger 2001-2013
</metadata>
<g transform="translate(0.000000,1024.000000) scale(0.100000,-0.100000)"
fill="#000000" stroke="none">
<path d="M2819 9596 c-2 -2 -67 -7 -144 -10 -77 -4 -153 -8 -170 -11 -16 -2
-73 -9 -125 -16 -52 -6 -104 -13 -115 -15 -141 -26 -253 -56 -365 -96 -86 -31
-273 -119 -300 -142 -8 -7 -22 -15 -31 -19 -8 -3 -60 -39 -115 -80 -255 -193
-453 -425 -583 -684 -62 -122 -134 -332 -156 -450 -3 -16 -7 -39 -10 -53 -2
-13 -7 -42 -10 -65 -3 -22 -8 -47 -10 -55 -2 -8 -7 -42 -10 -75 -3 -33 -8 -73
-10 -90 -2 -16 -7 -88 -12 -160 -10 -164 -11 -4737 -1 -4900 37 -580 154 -938
416 -1267 232 -291 525 -507 837 -618 83 -29 239 -72 310 -85 69 -12 153 -25
205 -30 30 -3 75 -8 100 -10 154 -17 515 -20 2595 -20 2052 0 2509 3 2620 20
17 2 53 7 80 9 94 10 140 18 255 42 129 27 150 33 270 76 91 33 253 108 258
121 2 4 8 7 14 7 21 0 185 116 283 201 327 281 530 612 620 1009 31 138 33
150 49 290 4 30 9 71 11 90 17 146 20 561 20 2620 0 2064 -3 2445 -20 2598
-21 195 -24 214 -46 322 -78 381 -238 679 -514 956 -197 198 -434 357 -640
429 -27 9 -59 21 -70 25 -71 30 -292 81 -410 95 -32 4 -66 8 -75 10 -8 1 -51
6 -95 10 -44 3 -100 9 -125 12 -49 7 -4774 15 -4781 9z"/>
</g>
</svg>
